<?xml version="1.0"?><svg width="620.3732933333333" height="481.18668" xmlns="http://www.w3.org/2000/svg">
 <title>Knife and Fork Clipart white</title>

 <metadata id="metadata7">image/svg+xml</metadata>
 <g>
  <title>Layer 1</title>
  <g id="layer1">
   <path d="m23.418501,154.384003c0,29.002991 25.460798,137.746002 31.846899,162.972992c4.718498,18.639008 11.909801,37.819 20.266102,54.324005c11.025795,21.777008 37.156502,29.187012 57.903496,34.309998c29.983002,7.402008 64.712006,8.576996 95.540009,8.576996c29.018982,0 61.040009,-9.272003 88.876007,-16.144989c6.815979,-1.682007 24.621979,-3.812012 31.377991,-5.718018c26.264984,-7.41098 39.714996,-14.057983 67.932007,-21.023987c19.187988,-4.737 39.261993,-16.928009 55.009003,-28.59201c19.516998,-14.455994 34.825989,-32.513977 49.21701,-51.464996c2.895996,-3.811981 5.790955,-7.623993 8.685974,-11.436005c11.106018,-14.623993 17.370972,-39.124985 17.370972,-57.18399c0,-21.959 2.935059,-38.5 -5.789978,-60.041992c-8.589966,-21.207001 -27.497009,-35.732002 -43.427979,-51.465004c-18.942017,-18.707001 -33.487,-37.889801 -55.883026,-48.948402c-22.838989,-11.277699 -55.888,-11.7262 -81.064972,-20.014099c-31.734009,-10.446499 -70.091003,-13.9533 -103.351013,-13.9533c-25.177002,0 -50.477997,0 -75.274002,0c-25.824997,0 -23.128998,4.034401 -47.865005,8.920101c-17.461998,3.448799 -111.369493,83.169697 -111.369493,116.882702l0,0z" id="path3150" stroke-width="0.814146px" fill-rule="evenodd" fill="#ffffff"/>
   <path id="path1307" d="m424.958313,329.686493c-59.877411,69.570709 -163.70575,80.171875 -236.407867,24.137756c-72.702095,-56.034027 -88.892914,-159.138123 -36.865051,-234.758812c52.027863,-75.620678 154.108093,-97.353817 232.427612,-49.484428" stroke-dashoffset="0" stroke-miterlimit="0" stroke-linecap="round" stroke-width="11.3" stroke="#000000" fill="#ffffff"/>
   <path id="path2182" d="m195.739899,131.367142c38.123566,-45.888229 102.845428,-59.546181 156.293549,-32.981873c53.44812,26.564278 81.574249,86.368698 67.920349,144.418625c-13.6539,58.049927 -65.499023,99.087585 -125.198212,99.099731" stroke-dashoffset="0" stroke-miterlimit="0" stroke-linecap="round" stroke-width="11.299914" stroke="#000000" fill="#ffffff"/>
   <path d="m450.832703,139.095779l0.510284,-44.028091c0,0 -0.765442,-8.805618 6.378662,-8.805618c6.888947,0 5.61322,8.805618 5.61322,8.805618l-0.255127,44.028091c0,0 -0.765442,4.402817 5.102905,4.661804c5.868378,0.258987 4.847778,-4.920792 4.847778,-4.920792l-0.255127,-43.251129c0,0 -0.510284,-9.323593 5.61322,-9.323593c6.123505,0 4.847778,9.582588 4.847778,9.582588l0,44.287086c0,0 1.913605,3.820068 6.123505,3.625824c4.20993,-0.194229 4.91156,-3.690582 5.039154,-3.59346l0.574066,-44.060471c0,0 0,-9.323586 5.358063,-9.582581c5.358093,-0.258987 5.358093,9.582581 5.358093,9.582581l-0.255157,46.617981c0,0 2.857025,37.662308 -14.587128,40.195328c-15.440094,2.242035 6.091827,133.944504 0.335205,137.863297c-5.445618,3.707092 -6.808899,4.358368 -11.911835,4.617371c-5.102936,0.258972 -10.09494,-1.597778 -13.355164,-5.349915c-6.006378,-6.912598 13.083313,-136.227417 1.538391,-137.900101c-15.043762,-2.179581 -16.875946,-43.310806 -16.620789,-43.051819z" id="path4031" stroke-miterlimit="4" stroke-width="5.883" stroke="#000000" fill-rule="evenodd" fill-opacity="0.75" fill="#ffffff"/>
   <path d="m53.904911,111.242722c6.88895,-13.208435 20.922009,-15.371613 27.045521,-15.371613c6.123505,0 22.6194,1.473305 27.300667,16.407562c4.741074,15.125031 2.601868,84.280273 -14.842278,86.813309c-15.440102,2.242035 6.091827,133.944489 0.335197,137.863281c-5.445625,3.707092 -6.808907,4.358368 -11.911842,4.617371c-5.102913,0.259003 -9.589859,-0.587616 -12.850082,-4.339752c-6.006374,-6.912598 12.578247,-135.722336 1.033318,-137.39502c-15.043751,-2.179596 -22.999451,-75.386719 -16.1105,-88.595139z" id="path8399" stroke-miterlimit="4" stroke-width="5.883" stroke="#000000" fill-rule="evenodd" fill-opacity="0.75" fill="#ffffff"/>
   <path id="path8401" d="m81.745232,112.329727c6.34053,-1.371536 12.533371,4.405273 16.017609,14.941605c3.484238,10.536301 3.667679,24.041336 0.474472,34.930374c-3.193199,10.889038 -9.220329,17.311371 -15.58902,16.611176" stroke-dashoffset="0" stroke-miterlimit="4" stroke-linecap="round" stroke-width="5.883" stroke="#000000" fill="#ffffff"/>
  </g>
 </g>
</svg>